<svg width="48" height="48" viewBox="0 0 48 48" fill="none" xmlns="http://www.w3.org/2000/svg">
<g id="Icon / 24 / Arrow / Chevron down">
<path id="Shape" fill-rule="evenodd" clip-rule="evenodd" d="M34.8863 17.7063C34.4961 17.3161 33.8635 17.3158 33.4729 17.7056L25 26.16L16.5271 17.7056C16.1365 17.3158 15.5039 17.3161 15.1137 17.7063L13.7071 19.1129C13.3166 19.5034 13.3166 20.1366 13.7071 20.5271L24.2929 31.1129C24.6834 31.5034 25.3166 31.5034 25.7071 31.1129L36.2929 20.5271C36.6834 20.1366 36.6834 19.5034 36.2929 19.1129L34.8863 17.7063Z" fill="#7A7F8A"/>
<mask id="mask0" mask-type="alpha" maskUnits="userSpaceOnUse" x="13" y="17" width="24" height="15">
<path id="Shape_2" fill-rule="evenodd" clip-rule="evenodd" d="M34.8863 17.7063C34.4961 17.3161 33.8635 17.3158 33.4729 17.7056L25 26.16L16.5271 17.7056C16.1365 17.3158 15.5039 17.3161 15.1137 17.7063L13.7071 19.1129C13.3166 19.5034 13.3166 20.1366 13.7071 20.5271L24.2929 31.1129C24.6834 31.5034 25.3166 31.5034 25.7071 31.1129L36.2929 20.5271C36.6834 20.1366 36.6834 19.5034 36.2929 19.1129L34.8863 17.7063Z" fill="white"/>
</mask>
<g mask="url(#mask0)">
</g>
</g>
</svg>
