<svg width="652" height="100" viewBox="0 0 652 100" fill="none" xmlns="http://www.w3.org/2000/svg">
<path fill-rule="evenodd" clip-rule="evenodd" d="M183.04 0.774679C182.848 0.306056 182.391 3.9585e-05 181.885 3.89223e-09C181.201 -5.34107e-05 180.645 0.549671 180.636 1.23335C180.63 1.73988 180.93 2.20006 181.396 2.39831C181.862 2.59655 182.402 2.49358 182.762 2.13764C183.123 1.7817 183.233 1.2433 183.04 0.774679ZM183.053 4.45304L187.077 0.724895L181.879 3.34459L176.686 0.724895L180.711 4.45304L178.135 10.7447L181.882 6.76049L185.682 10.7509L183.053 4.45304ZM56.2281 87.6553V84.8108C50.8701 84.1458 49.7429 83.0248 46.9608 75.8121C43.064 65.9043 39.3016 55.8714 35.5228 45.7947L35.5227 45.7944L35.5219 45.7924L35.5212 45.7904L35.5161 45.7768L35.5157 45.7758C33.9892 41.705 32.4599 37.6271 30.918 33.5473L26.6278 34.6121L9.4796 76.0962C6.69442 83.1404 5.79829 84.1458 0.112406 84.814L0 87.6585H18.7125V84.814C12.627 84.0365 12.4677 82.8593 13.6948 79.1187C14.4177 76.5693 15.2857 74.1892 16.0819 72.0055L16.0821 72.005L16.0829 72.0029L16.0831 72.0024L16.0841 71.9996C16.3189 71.3557 16.5474 70.7289 16.7641 70.12H32.96C34.2042 73.2397 35.3816 76.3858 36.4915 79.5558C37.7123 83.0311 37.3876 83.9803 32.4105 84.8171V87.6616L56.2281 87.6553ZM194.153 84.8105V87.6551L169.015 87.6363V84.7918C175.272 84.1861 176.109 83.7458 176.109 76.7235V45.6432C176.109 38.674 175.26 38.1838 169.015 37.6311V34.7835H194.153V37.6311C187.896 38.1807 187.172 38.674 187.172 45.6432V76.7423C187.172 83.7645 187.909 84.2017 194.153 84.8105ZM272.504 85.6073C270.571 84.9767 268.848 83.8276 267.524 82.285C265.154 79.5013 263.005 76.5364 261.098 73.4174C258.662 69.7064 256.396 65.8869 254.307 61.9707C259.821 59.8631 264.686 55.9508 264.686 48.7005C264.826 44.3661 262.738 40.2614 259.153 37.8221C255.759 35.5802 251.506 34.8028 243.95 34.8028H220.785V37.6504C226.867 38.1437 227.707 39.0961 227.707 45.625V76.7428C227.707 83.4247 226.655 84.146 220.46 84.8111V87.6556H245.617V84.8111C239.304 84.146 238.467 83.4247 238.467 76.7428V64.9901H240.087C242.483 64.8502 244.718 66.2008 245.708 68.3873C246.53 69.8405 247.322 71.2914 248.094 72.7046C249.632 75.521 251.089 78.188 252.536 80.4272C255.893 85.498 259.137 87.8304 269.741 88.3456C270.326 88.3456 270.889 88.3667 271.325 88.3831H271.325L271.326 88.3831L271.326 88.3831C271.601 88.3934 271.826 88.4018 271.973 88.4018L272.504 85.6073ZM238.47 61.7989V41.8842C238.47 40.2699 238.623 39.3863 239.195 38.8836C240.359 38.1517 241.737 37.8368 243.104 37.9906C247.853 37.9906 253.002 41.1629 253.002 49.8744C253.248 53.5755 251.761 57.1809 248.977 59.6319C246.499 61.317 243.51 62.0825 240.528 61.7957L238.47 61.7989ZM142.378 87.6552V84.8107C135.665 84.1456 135.397 83.4243 135.228 75.8494L134.388 45.9462C134.216 39.0332 134.56 38.3151 141.311 37.6469V34.7992H124.584L107.82 70.6069L91.3959 34.7992H74.1353V37.6469C81.3824 38.3119 82.01 39.5203 81.2856 48.8313L79.9898 64.4433C79.6968 69.6684 79.0984 74.8719 78.1975 80.0272C77.6636 82.8748 76.0431 84.3767 71.3126 84.8138V87.6583H91.5489V84.8138C85.9036 84.3205 84.3986 83.5992 83.9396 80.0272C83.5992 75.6548 83.5794 71.2634 83.8803 66.8881L85.0262 45.5497H85.3384L102.69 87.1712H104.922L123.71 44.8908H124.147L124.262 75.8588C124.378 83.4337 123.859 84.155 117.605 84.82V87.6646L142.378 87.6552ZM18.2158 65.7987H31.3955L25.1382 48.2915H24.9102C22.592 54.0937 20.3602 59.9301 18.2158 65.7987ZM171.32 1.58013C171.804 1.42684 172.333 1.58163 172.658 1.97173C172.982 2.36184 173.039 2.90967 172.8 3.3577C172.562 3.80573 172.076 4.06485 171.571 4.01326C171.066 3.96166 170.642 3.60961 170.499 3.12259C170.308 2.47066 170.673 1.78532 171.32 1.58013ZM176.499 0.752842L173.755 5.49264L178.126 10.7414L173.315 8.04052L170.913 12.9458L171.513 6.17645L166.567 3.79093L172.306 4.77761L176.499 0.752842ZM163.363 6.52305C162.97 5.96602 162.203 5.82706 161.64 6.21081C161.221 6.49623 161.016 7.00668 161.121 7.50265C161.226 7.99862 161.621 8.38166 162.12 8.47205C162.619 8.56243 163.123 8.34221 163.396 7.91473C163.668 7.48725 163.656 6.93734 163.363 6.52305ZM165.131 9.23617L166.342 3.9L163.535 8.97702L157.762 9.72327L163.195 10.5507L164.631 17.192L165.468 11.7965L170.867 12.9674L165.131 9.23617ZM153.809 13.4265C154.241 12.8978 155.016 12.813 155.552 13.2361C155.808 13.4392 155.973 13.7367 156.01 14.0622C156.046 14.3876 155.951 14.7141 155.745 14.969C155.314 15.4977 154.538 15.5825 154.003 15.1594C153.747 14.9558 153.582 14.6584 153.546 14.3332C153.51 14.008 153.604 13.6817 153.809 13.4265ZM157.622 9.84174L158.034 15.2997L164.616 17.1887L159.114 17.6509L159.892 23.0096L159.917 23.0093L159.894 23.0184L159.898 23.0495L159.883 23.0226L154.79 25.0482L157.125 29.9847L152.201 25.2792L147.233 27.621L151.605 23.7867L151.074 18.0165L153.066 23.1154L159.876 23.0099L156.57 17.1169L151.133 17.9131L156.442 15.512L157.622 9.84174ZM149.615 21.7479C149.108 21.7589 148.657 22.0762 148.476 22.5506C148.234 23.1842 148.541 23.8953 149.169 24.1524C149.639 24.3449 150.179 24.2337 150.534 23.871C150.89 23.5084 150.99 22.9667 150.789 22.5006C150.587 22.0345 150.123 21.737 149.615 21.7479ZM146.04 32.957C146.073 32.4506 146.41 32.0148 146.892 31.8547C147.374 31.6946 147.904 31.8419 148.234 32.2275C148.565 32.613 148.629 33.16 148.396 33.6114C148.164 34.0627 147.682 34.3286 147.176 34.2841C146.5 34.2244 145.995 33.6349 146.04 32.957ZM147.174 27.8611L150.593 32.1325L157.106 30.0187L152.81 33.4752L156.493 37.4948L156.507 37.4849L156.497 37.4994L156.503 37.5062L156.495 37.5022L153.41 42.0373L158.125 44.8194L158.115 44.8177L156.498 50.0741L161.798 51.347L161.802 51.3354V51.3481L161.828 51.3543L161.802 51.3576V56.834L167.273 56.5219L167.273 56.513L167.276 56.5218L168.894 61.7711L174.027 59.8633L168.909 64.3564L170.845 69.4772L167.367 64.8279L161.54 64.881L166.811 63.3198L167.272 56.5232L161.056 59.3319L161.393 64.793L159.442 59.3319L153.859 57.6521L159.354 57.7051L161.793 51.3588L155.056 52.2254L153.775 57.5335L153.51 51.7446L148.661 48.5473L153.903 50.1959L158.114 44.8176L151.402 43.661L148.607 48.3758L150.062 42.7555L146.362 38.2749L150.887 41.3973L156.488 37.4984L150.405 34.4556L146.346 38.1525L149.381 33.2035L147.174 27.8611ZM147.261 42.1767C146.848 42.4706 146.653 42.9855 146.769 43.4795C146.924 44.1418 147.58 44.5583 148.246 44.4162C148.742 44.3103 149.124 43.9147 149.214 43.4152C149.304 42.9158 149.082 42.4119 148.654 42.1401C148.225 41.8684 147.675 41.8828 147.261 42.1767ZM150.584 53.4057C150.33 52.9669 150.367 52.4182 150.677 52.0169C150.987 51.6156 151.508 51.4414 151.997 51.576C152.486 51.7106 152.845 52.1273 152.905 52.6307C152.966 53.134 152.716 53.6241 152.274 53.871C151.988 54.0348 151.649 54.0778 151.332 53.9904C151.015 53.9031 150.746 53.6926 150.584 53.4057ZM156.805 60.3841C156.625 60.8582 156.75 61.3938 157.121 61.7397C157.619 62.205 158.399 62.1841 158.872 61.6928C159.224 61.3277 159.32 60.7862 159.116 60.3224C158.911 59.8585 158.446 59.5644 157.939 59.578C157.433 59.5915 156.984 59.9101 156.805 60.3841ZM165.865 67.8311C165.41 67.6078 165.135 67.1318 165.169 66.6263C165.203 66.1208 165.539 65.6859 166.02 65.5254C166.5 65.3649 167.03 65.5106 167.361 65.8943C167.692 66.2779 167.758 66.8235 167.529 67.2753C167.22 67.8847 166.478 68.1323 165.865 67.8311ZM193.352 2.66875C193.306 2.1652 192.961 1.73905 192.478 1.58933C191.821 1.38569 191.123 1.75139 190.917 2.4074C190.765 2.88972 190.919 3.41597 191.307 3.74035C191.695 4.06473 192.24 4.12324 192.688 3.88856C193.136 3.65387 193.398 3.17229 193.352 2.66875ZM192.277 6.19224L197.226 3.80673L191.484 4.7934L187.297 0.765511L190.039 5.50843L185.717 10.7665L190.476 8.05631L192.927 12.9803L192.277 6.19224ZM202.138 6.21728C202.557 6.5027 202.762 7.01316 202.656 7.50912C202.551 8.00509 202.156 8.38814 201.657 8.47852C201.158 8.5689 200.654 8.34869 200.382 7.9212C200.109 7.49372 200.122 6.94381 200.414 6.52952C200.807 5.9725 201.574 5.83353 202.138 6.21728ZM206.019 9.72957L200.586 10.557L199.201 17.2156L205.732 15.2875L206.137 9.82953L207.333 15.4998L212.62 17.8947L207.18 17.1047L203.889 23.0872L204.642 17.6386L199.199 17.2252L199.196 17.2358L199.195 17.2249L199.174 17.2234L199.194 17.2177L198.313 11.8091L192.964 13.0018L198.653 9.25496L197.439 3.91879L200.249 8.9958L206.019 9.72957ZM210.203 14.3156C210.239 13.9897 210.143 13.6629 209.937 13.4079C209.506 12.8792 208.73 12.7944 208.195 13.2175C207.938 13.4217 207.774 13.7199 207.738 14.0458C207.702 14.3718 207.798 14.6985 208.004 14.9535C208.436 15.4823 209.211 15.5671 209.747 15.144C210.003 14.9398 210.168 14.6416 210.203 14.3156ZM215.374 22.7688C215.563 23.239 215.449 23.7768 215.086 24.1301C214.722 24.4834 214.182 24.5821 213.717 24.38C213.252 24.1779 212.956 23.7149 212.966 23.2083C212.977 22.7016 213.293 22.2516 213.766 22.0693C214.403 21.8237 215.119 22.1353 215.374 22.7688ZM216.585 27.8489L211.633 25.4758L206.696 30.2031L209.047 25.226L203.958 23.2059L210.78 23.3027L212.807 18.2131L212.245 23.9833L216.585 27.8489ZM217.07 34.518C217.523 34.2879 217.791 33.8068 217.749 33.3009C217.692 32.6243 217.106 32.1167 216.428 32.1581C215.921 32.189 215.484 32.5236 215.321 33.0046C215.159 33.4855 215.303 34.017 215.687 34.3492C216.071 34.6814 216.618 34.7481 217.07 34.518ZM213.366 34.7651L217.384 38.512L214.406 33.5255L216.672 28.1862L213.213 32.4421L206.728 30.322L210.983 33.7566L207.236 37.8157L213.366 34.7651ZM216.885 43.9668C216.776 44.4618 216.38 44.8423 215.881 44.9301C215.382 45.0178 214.879 44.7953 214.608 44.3669C214.338 43.9385 214.353 43.3891 214.647 42.9761C214.94 42.5632 215.454 42.3686 215.948 42.4836C216.613 42.6386 217.03 43.2994 216.885 43.9668ZM214.989 48.8344L212.26 44.0853L205.5 45.1937L210.271 42.4242L207.227 37.8842L212.794 41.8153L217.359 38.7678L213.612 43.2016L214.989 48.8344ZM211.679 54.4682C212.183 54.5335 212.676 54.2876 212.926 53.8461C213.261 53.2553 213.063 52.5049 212.48 52.1569C212.044 51.8969 211.494 51.9267 211.088 52.2321C210.683 52.5376 210.503 53.058 210.632 53.5488C210.762 54.0395 211.176 54.403 211.679 54.4682ZM208.47 52.6065L209.675 57.9458L210.016 52.16L214.927 49.0251L209.663 50.6019L205.501 45.2158L207.062 50.4427L201.682 51.6916L208.47 52.6065ZM206.219 62.1301C205.714 62.5888 204.933 62.5568 204.467 62.0583C204.244 61.8179 204.126 61.4983 204.14 61.1706C204.153 60.8428 204.297 60.5341 204.539 60.3128C205.045 59.8541 205.825 59.8861 206.291 60.3847C206.514 60.625 206.632 60.9446 206.618 61.2723C206.605 61.6001 206.461 61.9088 206.219 62.1301ZM201.903 65.0964L202.328 59.6416L196.108 56.7784L201.622 57.153L201.666 51.6951L204.051 58.0617L209.55 58.096L203.945 59.6572L201.903 65.0964ZM195.703 67.5098C196.002 68.1244 196.739 68.3846 197.358 68.0937C197.816 67.878 198.099 67.4067 198.073 66.9008C198.048 66.3948 197.719 65.9543 197.242 65.7857C196.764 65.6172 196.231 65.7539 195.894 66.1319C195.557 66.5099 195.481 67.0542 195.703 67.5098ZM194.379 64.5653L192.362 69.6548L195.912 65.0617L201.732 65.2022L196.49 63.5598L196.09 56.778L194.435 61.9799L189.28 60.0066L194.379 64.5653Z" fill="#8C46FF"/>
<path d="M312.265 34.5438H290.263V36.964C296.863 37.4041 297.633 37.9541 297.633 44.8848V71.5623C297.633 78.2179 297.468 83.0034 296.753 87.0738C295.873 91.8042 293.453 95.4346 288.887 97.5798L289.933 100C292.078 99.3399 294.938 97.8548 297.743 95.2696C303.684 90.0441 305.224 84.1035 305.224 73.8175V44.8848C305.224 37.9541 305.939 37.4041 312.265 36.964V34.5438Z" fill="#8C46FF"/>
<path d="M346.258 33.3337C328.381 33.3337 317.435 46.645 317.435 61.2213C317.435 76.7328 329.756 88.1189 345.213 88.1189C360.834 88.1189 373.871 77.3929 373.871 60.0112C373.871 43.8947 360.779 33.3337 346.313 33.3337H346.258ZM344.553 36.359C355.389 36.359 364.74 45.2698 364.74 62.1564C364.74 77.7229 356.269 85.0936 347.028 85.0936C335.202 85.0936 326.456 73.9275 326.456 59.1311C326.456 43.8947 335.257 36.359 344.498 36.359H344.553Z" fill="#8C46FF"/>
<path d="M436.631 34.5438H416.775V36.964C422.44 37.3491 424.31 38.4492 424.75 41.5295C425.19 44.0597 425.41 47.25 425.41 54.5107V60.6713C425.41 74.0375 421.395 83.3884 409.734 83.3884C399.723 83.3884 394.167 76.1277 394.167 62.8715V45.3248C394.167 37.8441 394.883 37.3491 401.318 36.964V34.5438H379.261V36.964C385.752 37.5141 386.467 37.8991 386.467 45.3248V64.5216C386.467 74.2026 388.887 80.3081 393.947 84.0485C397.633 86.8538 402.418 87.9539 407.479 87.9539C413.144 87.9539 418.755 86.1937 422.605 82.2883C427.391 77.3379 428.931 70.3522 428.931 60.8363V54.5107C428.931 47.25 429.206 44.0047 429.426 41.7495C429.756 38.4492 431.846 37.2391 436.631 36.964V34.5438Z" fill="#8C46FF"/>
<path d="M490.867 85.3136C488.996 84.8736 487.181 83.9935 485.091 81.6283C483.166 79.6481 481.406 77.3929 478.435 73.1575C475.96 69.4721 472.605 64.1916 471.175 61.5514C477.06 59.0761 481.571 54.8957 481.571 47.9101C481.571 43.0146 479.481 39.4393 476.125 37.3491C472.99 35.2589 468.975 34.5438 462.759 34.5438H441.692V36.964C448.073 37.4041 448.788 37.8441 448.788 44.7198V76.6228C448.788 83.3884 448.018 83.9935 441.362 84.5435V86.8538H463.639V84.5435C457.038 83.9935 456.268 83.3884 456.268 76.6228V64.0816H458.579C462.814 64.0816 464.244 65.0717 465.729 67.3819C468.204 71.2323 470.9 76.1277 473.705 80.0331C477.5 85.3136 480.911 87.0738 487.566 87.4038C488.556 87.5138 489.491 87.5688 490.482 87.5688L490.867 85.3136ZM456.268 61.3863V41.5845C456.268 39.4943 456.598 38.5592 457.148 38.1191C457.753 37.6791 459.074 37.3491 461.549 37.3491C467.654 37.3491 473.32 40.5394 473.32 49.1752C473.32 53.5206 472.055 56.6559 468.92 59.0761C466.829 60.7263 464.079 61.3863 459.954 61.3863H456.268Z" fill="#8C46FF"/>
<path d="M550.657 34.5438H531.02V36.964C536.906 37.2391 538.831 38.2842 539.216 42.0795C539.436 44.3897 539.766 48.0201 539.766 55.5008V74.2576H539.546L504.508 34.5438H491.857V36.964C495.707 37.2391 497.467 37.8991 499.172 39.8793C500.658 41.8045 500.933 42.2445 500.933 48.1301V65.4017C500.933 72.8274 500.603 76.6228 500.273 79.153C499.887 83.1684 497.797 84.2135 493.067 84.5435V86.8538H512.759V84.5435C507.093 84.1035 505.223 83.1134 504.838 78.933C504.618 76.6228 504.288 72.8274 504.288 65.4017L504.343 45.7649H504.453L540.591 87.6788H543.232V55.5008C543.232 48.0201 543.452 44.3897 543.727 41.8045C544.112 38.1191 546.092 37.1841 550.657 36.964V34.5438Z" fill="#8C46FF"/>
<path d="M605.717 86.8538V84.5435C600.382 83.9935 599.227 83.1134 596.587 76.0177C591.141 61.8814 585.861 47.58 580.58 33.3337L577.72 34.0488L560.448 76.0177C557.533 83.1684 556.378 83.7185 551.042 84.5435V86.8538H569.194V84.5435C562.978 83.8835 562.318 82.9484 564.079 78.0529C565.124 74.8626 566.224 71.7273 567.599 68.042H585.256C587.016 72.6624 588.501 76.6778 589.656 79.8681C590.756 83.1134 590.041 83.8285 584.926 84.5435V86.8538H605.717ZM584.045 64.4116H568.974C571.449 57.921 574.034 51.0454 576.675 44.3897H576.84L584.045 64.4116Z" fill="#8C46FF"/>
<path d="M648.677 73.3775C647.301 77.2278 645.761 79.8681 644.221 81.4082C642.351 83.4984 639.436 83.9935 635.09 83.9935C631.845 83.9935 629.04 83.8285 627.445 82.9484C625.904 82.1233 625.519 80.5832 625.519 76.1827V44.8848C625.519 37.8441 626.289 37.4041 632.78 36.964V34.5438H610.503V36.964C617.324 37.4041 617.874 37.8991 617.874 44.8848V76.4578C617.874 83.4984 617.159 84.0485 610.118 84.5435V86.8538H648.072C648.897 84.3785 650.602 76.6228 651.152 73.8725L648.677 73.3775Z" fill="#8C46FF"/>
</svg>
